<svg xmlns="http://www.w3.org/2000/svg" width="1200" height="310" viewBox="0 0 1200 310" role="img" aria-labelledby="title desc">
  <title id="title">Xander — systems, devices, cloud and intelligence</title>
  <desc id="desc">A compact terminal-inspired profile banner with a connected systems diagram.</desc>
  <defs>
    <linearGradient id="bg" x1="0" y1="0" x2="1" y2="1">
      <stop offset="0" stop-color="#07111f"/>
      <stop offset="0.52" stop-color="#0b1220"/>
      <stop offset="1" stop-color="#17102b"/>
    </linearGradient>
    <linearGradient id="accent" x1="0" y1="0" x2="1" y2="0">
      <stop offset="0" stop-color="#22d3ee"/>
      <stop offset="0.55" stop-color="#60a5fa"/>
      <stop offset="1" stop-color="#a78bfa"/>
    </linearGradient>
    <radialGradient id="glow">
      <stop offset="0" stop-color="#22d3ee" stop-opacity=".18"/>
      <stop offset="1" stop-color="#22d3ee" stop-opacity="0"/>
    </radialGradient>
    <filter id="blur"><feGaussianBlur stdDeviation="28"/></filter>
  </defs>
  <rect width="1200" height="310" rx="22" fill="url(#bg)"/>
  <circle cx="1000" cy="60" r="180" fill="url(#glow)" filter="url(#blur)"/>
  <path d="M0 255 C180 215 300 305 500 260 S860 190 1200 248" fill="none" stroke="url(#accent)" stroke-opacity=".16" stroke-width="2"/>
  <g transform="translate(54 42)">
    <circle cx="9" cy="9" r="5" fill="#fb7185"/>
    <circle cx="29" cy="9" r="5" fill="#fbbf24"/>
    <circle cx="49" cy="9" r="5" fill="#34d399"/>
    <text x="0" y="65" fill="#7dd3fc" font-family="ui-monospace, SFMono-Regular, Menlo, Consolas, monospace" font-size="15">xander@workbench:~$ whoami</text>
    <text x="0" y="119" fill="#f8fafc" font-family="ui-sans-serif, system-ui, -apple-system, sans-serif" font-size="48" font-weight="750" letter-spacing="-1">XANDER</text>
    <text x="2" y="153" fill="#94a3b8" font-family="ui-monospace, SFMono-Regular, Menlo, Consolas, monospace" font-size="16">systems engineer / product builder</text>
    <rect x="0" y="181" width="440" height="2" rx="1" fill="url(#accent)"/>
    <text x="0" y="216" fill="#cbd5e1" font-family="ui-monospace, SFMono-Regular, Menlo, Consolas, monospace" font-size="14">bare metal → edge → cloud → intelligence</text>
  </g>
  <g transform="translate(642 67)" font-family="ui-monospace, SFMono-Regular, Menlo, Consolas, monospace" font-size="13">
    <path d="M82 34 H184 M266 34 H368 M409 75 V132 M368 173 H266 M184 173 H82 M41 132 V75" fill="none" stroke="url(#accent)" stroke-width="2" stroke-dasharray="5 7" opacity=".75"/>
    <g fill="#0f1b2e" stroke-width="1.5">
      <rect x="0" y="0" width="82" height="68" rx="12" stroke="#22d3ee"/>
      <rect x="184" y="0" width="82" height="68" rx="12" stroke="#60a5fa"/>
      <rect x="368" y="0" width="82" height="68" rx="12" stroke="#a78bfa"/>
      <rect x="368" y="139" width="82" height="68" rx="12" stroke="#22d3ee"/>
      <rect x="184" y="139" width="82" height="68" rx="12" stroke="#60a5fa"/>
      <rect x="0" y="139" width="82" height="68" rx="12" stroke="#a78bfa"/>
    </g>
    <g fill="#e2e8f0" text-anchor="middle">
      <text x="41" y="39">BOOT</text><text x="225" y="39">LINUX</text><text x="409" y="39">EDGE</text>
      <text x="409" y="178">CLOUD</text><text x="225" y="178">APPS</text><text x="41" y="178">AGENTS</text>
    </g>
    <circle cx="133" cy="34" r="4" fill="#22d3ee"/><circle cx="317" cy="34" r="4" fill="#60a5fa"/>
    <circle cx="409" cy="104" r="4" fill="#a78bfa"/><circle cx="317" cy="173" r="4" fill="#22d3ee"/>
    <circle cx="133" cy="173" r="4" fill="#60a5fa"/><circle cx="41" cy="104" r="4" fill="#a78bfa"/>
  </g>
  <rect x=".75" y=".75" width="1198.5" height="308.5" rx="21.25" fill="none" stroke="#334155" stroke-opacity=".75" stroke-width="1.5"/>
</svg>
